<?xml version="1.0" standalone="no"?>
<!DOCTYPE svg PUBLIC "-//W3C//DTD SVG 20010904//EN"
 "http://www.w3.org/TR/2001/REC-SVG-20010904/DTD/svg10.dtd">
<svg version="1.0" xmlns="http://www.w3.org/2000/svg"
 width="500.000000pt" height="500.000000pt" viewBox="0 0 500.000000 500.000000"
 preserveAspectRatio="xMidYMid meet">
<metadata>
Created by potrace 1.14, written by Peter Selinger 2001-2017
</metadata>
<g transform="translate(0.000000,500.000000) scale(0.100000,-0.100000)"
fill="#000000" stroke="none">
<path d="M3212 4472 c-76 -115 -116 -159 -133 -146 -20 16 -109 40 -219 58
-251 42 -506 40 -735 -5 -142 -28 -287 -68 -306 -85 -12 -11 -18 -11 -27 -2
-7 7 -12 16 -12 20 0 7 -46 84 -118 197 l-15 25 -9 -25 c-8 -20 -17 -147 -18
-267 0 -22 -6 -34 -17 -38 -68 -21 -289 -158 -391 -243 -243 -202 -403 -408
-534 -686 -102 -216 -154 -401 -187 -675 -20 -168 0 -474 45 -668 10 -44 11
-69 4 -82 -29 -53 6 -160 66 -206 19 -15 34 -33 34 -42 0 -12 -3 -13 -12 -4
-26 26 -78 7 -78 -29 0 -30 28 -44 63 -31 17 6 35 8 41 3 6 -4 22 -11 36 -15
17 -4 38 -27 65 -72 22 -36 52 -79 67 -96 l27 -29 -23 -10 c-16 -7 -30 -8 -42
-1 -33 17 -180 15 -234 -3 -48 -16 -79 -40 -67 -51 3 -4 24 -6 46 -6 40 1 40
1 25 -23 -14 -21 -13 -25 8 -49 29 -33 90 -46 116 -24 26 22 49 28 49 12 0 -7
-3 -11 -7 -9 -4 3 -15 -4 -24 -14 -12 -13 -33 -18 -79 -20 -34 -1 -75 -8 -90
-16 -16 -8 -56 -17 -90 -20 -98 -10 -95 -23 5 -26 37 -1 65 -6 62 -11 -3 -4 2
-8 10 -8 9 0 16 -7 16 -15 0 -8 11 -17 25 -21 14 -3 25 -10 25 -14 0 -5 -10
-6 -22 -3 -13 3 -20 3 -16 -1 3 -5 22 -9 40 -11 18 -2 56 -7 83 -11 28 -4 53
-7 58 -6 4 1 7 -5 7 -13 0 -10 10 -15 28 -15 15 -1 127 -2 248 -4 222 -3 358
7 399 32 18 10 17 12 -15 13 -19 1 -41 2 -47 2 -7 -1 -13 3 -13 8 0 5 -12 9
-27 10 -40 1 -64 12 -55 25 11 18 44 18 84 1 27 -12 78 -18 190 -21 243 -8
535 -18 628 -21 47 -2 220 -6 385 -10 578 -13 543 -14 583 8 20 11 41 26 45
33 4 8 15 14 24 14 8 0 40 25 71 55 31 31 62 53 69 50 7 -3 20 -8 30 -12 10
-4 14 -2 10 4 -4 6 6 13 24 17 52 10 83 6 109 -14 l25 -19 -27 -10 c-15 -6
-44 -10 -63 -9 -19 1 -38 -2 -42 -5 -3 -4 1 -7 10 -7 10 0 17 -4 17 -9 0 -4
-11 -6 -25 -3 -14 2 -23 8 -20 12 3 4 -9 10 -26 12 -22 3 -33 0 -39 -13 -6
-10 -17 -25 -26 -33 -8 -9 -11 -16 -5 -16 6 0 11 -5 11 -11 0 -5 -4 -8 -8 -5
-10 6 -38 -11 -30 -19 9 -9 60 -17 55 -7 -3 4 3 8 13 8 10 0 16 -4 14 -8 -3
-4 4 -8 15 -8 42 0 7 -40 -36 -41 -15 0 -37 -5 -48 -10 -17 -8 -16 -9 8 -6 30
5 38 -9 10 -16 -10 -3 -3 -5 15 -6 21 -1 31 -5 26 -12 -3 -6 -20 -9 -36 -7
-16 3 -31 1 -34 -4 -3 -4 30 -8 73 -8 43 0 105 -4 138 -10 33 -5 75 -11 93
-12 19 -1 35 -5 37 -8 2 -3 -44 -5 -101 -5 -57 0 -104 -3 -104 -6 0 -4 -10 -5
-22 -1 -16 4 -20 2 -15 -10 4 -12 -2 -18 -21 -24 l-27 -7 25 -7 c35 -10 230
-11 205 -1 -14 6 -3 9 40 14 33 4 78 12 100 19 l40 13 -52 3 c-66 4 -70 18 -5
19 152 2 231 7 243 15 11 8 11 9 -1 5 -9 -2 -33 -1 -55 3 -28 5 2 8 100 10
211 3 291 12 280 30 -3 6 -16 10 -27 10 -47 0 -8 8 72 15 47 3 87 8 89 11 11
11 -17 18 -105 25 -52 4 -98 10 -101 13 -4 3 3 6 15 6 11 0 23 4 26 9 5 8 -21
19 -68 28 -37 7 -29 13 17 14 26 1 52 3 57 4 6 1 75 3 155 4 107 1 144 4 142
13 -1 7 12 14 28 18 l30 5 -38 18 c-28 14 -65 19 -142 20 l-104 2 45 23 c36
18 45 28 42 45 -2 14 -11 23 -26 25 -12 2 -27 13 -33 25 -14 26 -50 56 -66 57
-22 0 -25 22 -5 43 32 35 165 267 201 350 28 63 36 75 48 66 10 -9 19 -9 38 1
13 7 33 10 45 7 76 -20 140 63 105 137 -20 41 -61 61 -109 52 l-34 -7 8 38
c28 122 38 233 38 403 0 102 -3 208 -8 235 -4 28 -11 73 -14 100 -31 233 -128
499 -261 721 -179 298 -431 533 -773 723 -106 59 -181 90 -199 84 -14 -5 -14
-5 -19 107 -4 102 -14 179 -23 185 -5 2 -31 -31 -59 -73z m254 -3430 c-3 -5
-19 -8 -36 -7 -16 1 -30 -1 -30 -5 0 -4 -6 -7 -12 -8 -7 0 -28 -3 -45 -5 -18
-3 -35 -1 -38 4 -4 5 4 9 17 9 18 0 20 2 8 10 -10 7 9 10 63 10 43 0 76 -4 73
-8z m88 -23 c4 -19 13 -33 26 -36 25 -7 26 -23 2 -23 -10 0 -24 -6 -31 -12
-10 -9 -12 -10 -7 -1 11 19 -5 63 -23 64 -10 0 -11 2 -3 6 6 2 12 11 12 19 0
26 17 14 24 -17z m294 -36 c-2 -9 -14 -18 -28 -20 -63 -8 -200 -11 -205 -4 -2
5 30 7 73 6 42 -1 82 1 87 4 6 3 21 7 35 9 14 2 27 7 28 13 6 16 14 10 10 -8z
m-13 -61 l60 -8 -53 -12 c-29 -7 -73 -12 -98 -12 -28 0 -43 -4 -39 -10 4 -6
-9 -10 -32 -9 -38 1 -38 1 -8 9 30 8 30 8 -8 9 -21 0 -36 5 -33 10 3 5 -48 8
-119 7 -68 -1 -132 1 -142 5 -10 4 43 7 117 8 73 1 135 3 137 5 7 7 160 5 218
-2z m-498 -8 c-3 -3 -12 -4 -19 -1 -8 3 -5 6 6 6 11 1 17 -2 13 -5z m410 -40
c-3 -3 -12 -4 -19 -1 -8 3 -5 6 6 6 11 1 17 -2 13 -5z m46 -1 c-7 -2 -19 -2
-25 0 -7 3 -2 5 12 5 14 0 19 -2 13 -5z"/>
<path d="M3670 4279 c0 -11 4 -18 10 -14 5 3 7 12 3 20 -7 21 -13 19 -13 -6z"/>
<path d="M1037 4086 c-3 -8 -2 -18 3 -21 13 -8 20 9 11 24 -6 10 -10 9 -14 -3z"/>
<path d="M4245 3934 c-27 -27 -27 -54 0 -82 19 -20 62 -21 80 -2 13 15 14 23
3 55 -18 52 -49 63 -83 29z"/>
<path d="M4552 3619 c-7 -10 -20 -19 -30 -20 -13 0 -11 -3 6 -9 12 -5 26 -19
31 -32 l8 -22 5 22 c4 12 17 26 30 31 12 6 17 10 9 10 -7 1 -21 10 -30 20 -17
19 -17 19 -29 0z"/>
<path d="M510 3386 c0 -28 27 -96 38 -96 4 0 13 19 19 43 7 23 14 49 18 58 5
14 -1 17 -34 17 -36 1 -41 -2 -41 -22z"/>
<path d="M512 3282 c3 -38 13 -50 20 -24 3 10 -1 27 -9 38 -13 17 -13 16 -11
-14z"/>
<path d="M4606 3101 c-4 -5 -2 -12 3 -15 5 -4 12 -2 15 3 4 5 2 12 -3 15 -5 4
-12 2 -15 -3z"/>
<path d="M4665 2630 c-3 -5 -1 -10 4 -10 6 0 11 5 11 10 0 6 -2 10 -4 10 -3 0
-8 -4 -11 -10z"/>
<path d="M4676 2373 c-4 -9 -2 -21 4 -27 7 -7 10 -2 10 17 0 31 -5 34 -14 10z"/>
<path d="M225 2370 c-3 -5 1 -10 9 -10 9 0 16 5 16 10 0 6 -4 10 -9 10 -6 0
-13 -4 -16 -10z"/>
<path d="M4676 2291 c-4 -7 -5 -15 -2 -18 9 -9 19 4 14 18 -4 11 -6 11 -12 0z"/>
<path d="M4670 2225 c0 -15 4 -24 10 -20 6 3 10 12 10 20 0 8 -4 17 -10 20 -6
4 -10 -5 -10 -20z"/>
<path d="M4662 2158 c-17 -17 -15 -68 2 -68 15 0 26 21 26 50 0 24 -14 32 -28
18z"/>
<path d="M4620 2045 c-16 -19 1 -65 24 -65 26 0 46 28 37 53 -10 27 -43 34
-61 12z"/>
<path d="M483 1713 c-21 -8 -15 -43 6 -43 11 0 23 5 27 11 8 14 -17 38 -33 32z"/>
<path d="M4660 1666 c0 -9 5 -16 10 -16 6 0 10 4 10 9 0 6 -4 13 -10 16 -5 3
-10 -1 -10 -9z"/>
<path d="M476 1543 c-11 -11 -6 -23 9 -23 8 0 15 4 15 9 0 13 -16 22 -24 14z"/>
<path d="M4517 1529 c-19 -11 -23 -44 -7 -54 15 -9 40 14 40 36 0 23 -11 30
-33 18z"/>
<path d="M4420 1414 c0 -8 5 -12 10 -9 6 3 10 10 10 16 0 5 -4 9 -10 9 -5 0
-10 -7 -10 -16z"/>
<path d="M658 1363 c7 -3 16 -2 19 1 4 3 -2 6 -13 5 -11 0 -14 -3 -6 -6z"/>
<path d="M1948 929 c-17 -11 -18 -11 164 -13 87 0 158 2 158 7 0 9 9 8 -162
12 -80 1 -152 -1 -160 -6z"/>
<path d="M795 910 c3 -5 8 -10 11 -10 2 0 4 5 4 10 0 6 -5 10 -11 10 -5 0 -7
-4 -4 -10z"/>
<path d="M830 908 c0 -4 4 -8 9 -8 6 0 12 4 15 8 3 5 -1 9 -9 9 -8 0 -15 -4
-15 -9z"/>
<path d="M875 911 c-2 -3 28 -6 66 -6 38 -1 69 2 69 5 0 7 -130 8 -135 1z"/>
<path d="M1022 914 c8 -7 68 -12 72 -5 3 4 -14 7 -36 8 -22 1 -38 0 -36 -3z"/>
<path d="M710 892 c-30 -2 -59 -7 -64 -12 -6 -6 76 -9 207 -8 119 2 217 6 217
10 0 7 -268 15 -360 10z"/>
<path d="M615 880 c-3 -5 -1 -10 4 -10 6 0 11 5 11 10 0 6 -2 10 -4 10 -3 0
-8 -4 -11 -10z"/>
<path d="M1784 881 c5 -7 -3 -11 -21 -12 -21 0 -24 -2 -10 -7 9 -4 80 -7 157
-6 128 1 158 -4 130 -21 -26 -16 9 -20 157 -19 181 2 173 2 173 12 0 4 -70 7
-155 7 -102 0 -155 4 -155 11 0 5 15 10 33 11 88 1 117 4 117 11 0 4 -64 6
-142 5 -91 -2 -146 2 -155 9 -10 8 -13 7 -13 -3 0 -9 -3 -10 -8 -4 -8 12 -22
13 -39 2 -6 -4 -14 -3 -18 3 -3 5 -11 10 -16 10 -6 0 -7 -5 -3 -11 4 -7 -1 -7
-16 1 -15 8 -20 8 -16 1z"/>
<path d="M2320 875 c0 -7 30 -13 34 -7 3 4 -4 9 -15 9 -10 1 -19 0 -19 -2z"/>
<path d="M2460 870 c18 -12 30 -13 30 -2 0 4 -10 9 -22 9 -18 2 -20 0 -8 -7z"/>
<path d="M4000 837 c-51 -13 -22 -29 64 -35 81 -5 150 4 141 18 -3 5 11 12 32
15 21 4 43 8 48 10 21 8 -253 0 -285 -8z"/>
<path d="M1012 822 c-33 -2 -42 -7 -38 -18 4 -12 -13 -14 -106 -14 -61 0 -109
-2 -107 -5 3 -2 74 -5 159 -6 190 -3 239 -9 219 -26 -8 -7 -42 -14 -74 -16
-33 -2 37 -3 155 0 224 4 273 8 278 24 2 5 49 9 105 9 56 0 97 4 90 8 -7 4
-35 7 -63 6 -27 -1 -52 1 -54 5 -3 4 51 7 120 7 68 -1 124 2 124 5 0 14 -667
31 -808 21z"/>
<path d="M2384 823 c10 -10 46 -11 46 -1 0 4 -12 8 -27 8 -14 0 -23 -3 -19 -7z"/>
<path d="M2490 769 c-13 -9 -13 -10 0 -6 8 2 22 1 30 -3 8 -4 26 -3 40 1 24 7
23 7 -5 6 -17 0 -35 2 -41 5 -5 4 -16 2 -24 -3z"/>
<path d="M1990 761 c0 -11 65 -9 76 2 4 4 -11 7 -34 7 -23 0 -42 -4 -42 -9z"/>
<path d="M2090 760 c0 -5 7 -7 15 -4 8 4 15 8 15 10 0 2 -7 4 -15 4 -8 0 -15
-4 -15 -10z"/>
<path d="M2170 765 c0 -8 29 -12 39 -5 9 5 4 8 -13 8 -14 0 -26 -2 -26 -3z"/>
<path d="M2230 760 c0 -5 7 -7 15 -4 8 4 15 8 15 10 0 2 -7 4 -15 4 -8 0 -15
-4 -15 -10z"/>
<path d="M2290 759 c0 -5 5 -7 10 -4 6 3 10 8 10 11 0 2 -4 4 -10 4 -5 0 -10
-5 -10 -11z"/>
<path d="M2340 766 c0 -2 7 -6 15 -10 8 -3 15 -1 15 4 0 6 -7 10 -15 10 -8 0
-15 -2 -15 -4z"/>
<path d="M2388 763 c7 -3 16 -2 19 1 4 3 -2 6 -13 5 -11 0 -14 -3 -6 -6z"/>
<path d="M2450 759 c0 -5 5 -7 10 -4 6 3 10 8 10 11 0 2 -4 4 -10 4 -5 0 -10
-5 -10 -11z"/>
<path d="M878 733 c6 -2 18 -2 25 0 6 3 1 5 -13 5 -14 0 -19 -2 -12 -5z"/>
<path d="M938 733 c12 -2 32 -2 45 0 12 2 2 4 -23 4 -25 0 -35 -2 -22 -4z"/>
<path d="M2767 718 c-7 -4 28 -8 77 -8 49 0 87 3 84 6 -9 8 -148 10 -161 2z"/>
<path d="M1028 693 c12 -2 32 -2 45 0 12 2 2 4 -23 4 -25 0 -35 -2 -22 -4z"/>
<path d="M1788 593 c29 -2 74 -2 100 0 26 2 2 3 -53 3 -55 0 -76 -1 -47 -3z"/>
<path d="M1833 533 c15 -2 37 -2 50 0 12 2 0 4 -28 4 -27 0 -38 -2 -22 -4z"/>
</g>
</svg>
